<svg xmlns="http://www.w3.org/2000/svg" viewBox="0 0 59 39"><defs><style>.a{fill:#1b1b1b;}.b{fill:#090908;}.c{fill:#faa528;}.d{fill:#faa11e;}.e{fill:#121212;}.f{fill:#fefefe;}.g{fill:#0f141a;}.h{fill:#181818;}.i{fill:#0f0f0f;}.j{fill:#fead29;}.k{fill:#101010;}.l{fill:#0e0e0e;}.m{fill:#111;}</style></defs><title>鑫晤季国际 logo</title><path class="a" d="M17.2,2h.6l.9.2a13.4,13.4,0,0,1,0,2c0,.1-.1.2-.3.1h-.2a4.1,4.1,0,0,0-6.3,2.3c0,.2-.1.3-.1.5a6.9,6.9,0,0,0-1.6,2.9,8.2,8.2,0,0,0,0,4.4A3.4,3.4,0,0,0,13,16.8c.2.1.4,0,.6.2a.1.1,0,0,1-.1.1h.3l1.7-.2a4.3,4.3,0,0,0,3.2-3.6.4.4,0,0,1,.1-.3c.1-.1,0-.3,0-.5a.4.4,0,0,1,.4-.4h1a4.8,4.8,0,0,1,3,2,5.1,5.1,0,0,1,.1,5.8,4.1,4.1,0,0,1-.5.9c-.2.2-.1.3,0,.4l.9.5a5.1,5.1,0,0,1,2.1,3.2c0,.2,0,.2-.3.2H22.4c-.2,0-.3,0-.4-.2a3,3,0,0,0-4.5.1H15.6c-.2,0-.3-.1-.2-.2a5.8,5.8,0,0,1,.5-1.4,3.4,3.4,0,0,1,.9-1.2l-2-.4a9,9,0,0,1-7.4-8c-.4-4,1.2-7,4.3-9.4a15.7,15.7,0,0,1,3.8-2.2"/><path class="a" d="M2.5,35.4H1.1v-.5a2.5,2.5,0,0,0,.2-1.2c.6-3.6,1.2-7.3,1.7-10.9a.4.4,0,0,1,.4-.4,20.3,20.3,0,0,1,4.9-.2l1.6.2a5,5,0,0,1,2.9,1.4,1.7,1.7,0,0,1,.1,2.8,6.6,6.6,0,0,1-1.7,1.2.6.6,0,0,0,0,1.2l.9.7a2.5,2.5,0,0,1-.1,4,7,7,0,0,1-4.8,1.8"/><path class="a" d="M15.2,35.6a1.9,1.9,0,0,1-1.4-1.3c0-.1-.1-.2,0-.3.2-2.3.4-4.5.7-6.8,0-.2,0-.3.3-.3h2.9c.2,0,.2.1.2.3L17,32a3.8,3.8,0,0,0-.1,1.5.9.9,0,0,0,.9.7,7.3,7.3,0,0,0,2.9-.7,1.3,1.3,0,0,0,.8-1.2c.2-1.7.4-3.4.7-5.1,0-.2,0-.3.3-.3h2.6a.3.3,0,0,1,.3.3c-.5,2.7-1,5.4-1.4,8.1-.1.2-.1.3-.4.3H21.7a.3.3,0,0,1-.3-.3c.1-.2,0-.4.1-.7s-.1-.2-.3-.2a3.2,3.2,0,0,0-.9.3,13.5,13.5,0,0,1-3.4,1.1"/><path class="a" d="M53.6,27.9a.3.3,0,0,0,.5-.1c.8-1,2-1.1,3.2-1.3h.4v.2a9.6,9.6,0,0,0-.7,1.8c0,.2-.1.3-.3.2H54c-.4.2-.6.4-.6.8l-.6,5.3c0,.1-.1.1-.1.2s-.2.2-.4.2H49.7c-.2,0-.3,0-.4-.2s.3-2.4.4-3.6.3-2.7.5-4.1.1-.5.5-.5a19.2,19.2,0,0,0,2.4,0c.3,0,.4.1.4.3"/><path class="b" d="M18.6,2.1c.1,0,.1.1,0,.2L17.8,2"/><path class="c" d="M20.1,12H18.6a2,2,0,0,1,0-1.1,4.2,4.2,0,0,1-5.2.1,4,4,0,0,1-1.8-3.5c0-.2.1-.4.1-.6a2.4,2.4,0,0,0,.2-.8,4.3,4.3,0,0,1,6.4-2l.3.2V2.1h7.7a2.3,2.3,0,0,1,1.1.3,11.5,11.5,0,0,1,5.4,4.8,7.6,7.6,0,0,1,1.1,4.7V12H20.3"/><path class="a" d="M41.8,31.1c-.2,0-.3.1-.3.2a3.3,3.3,0,0,0-.1,1.4,1.8,1.8,0,0,0,1.8,1.4,11.3,11.3,0,0,0,4.1-.5c.3,0,.5-.3.8-.3s.4,0,.5.2a.5.5,0,0,1-.3.5,12.8,12.8,0,0,1-6.1,1.5,6.5,6.5,0,0,1-2-.4,3.1,3.1,0,0,1-1.9-2.7c-.5-1.9,1-4.5,3.1-5.2a7.7,7.7,0,0,1,5.2,0,3.5,3.5,0,0,1,2.2,2.1,1.1,1.1,0,0,1-1,1.6l-3.9.2"/><path class="a" d="M38.3,20.7l.2.2-.3,2.5c-.3,2.4-.7,4.8-1,7.2l-.6,4.5c0,.2-.1.3-.2.3H33.9c-.3,0-.2-.2-.2-.3l.6-4.9c.3-2.1.5-4.2.8-6.3l.3-2.3.2-.3Z"/><path class="a" d="M27.8,35.5a1.4,1.4,0,0,1-.9-.1c-.7-.2-.8-.3-.7-1.1l.9-6.1c.1-.3,0-.3-.2-.3h-.8c-.1,0-.2,0-.1-.2a.9.9,0,0,1,.7-1c1.3-.4,2.6-1,3.9-1.5v1.4c0,.3.1.3.3.3h3.2l-.7.9H30.7c-.2,0-.3,0-.4.3s-.5,2.7-.8,4.1v.9c.1.5.3.7.8.7h2.3c.2,0,.3,0,.4.3s0,.4-.3.4a13.3,13.3,0,0,1-4.4.9Z"/><path class="d" d="M20.3,12c.2-.2.3-.1.5-.1h13V12H20.3Z"/><path class="e" d="M27.8,35.5a.5.5,0,0,1,.5,0Z"/><path class="f" d="M11.7,6.9a9.2,9.2,0,0,0,.1,1.6A4.3,4.3,0,0,0,18.4,11l.2-.2v.9c0,.2,0,.3.2.3a.4.4,0,0,1,.1.3,1.3,1.3,0,0,1-.1.6,4.7,4.7,0,0,1-.6,2A4.7,4.7,0,0,1,15,17H13.6l-1.3-.3a3.8,3.8,0,0,1-2.4-3.2A8.3,8.3,0,0,1,11.7,6.9Z"/><path class="g" d="M18.8,12.9v-.7c0-.1,0-.2.2-.2a2.1,2.1,0,0,1,1.1.1h-.9a.3.3,0,0,0-.3.3v.5Z"/><path class="h" d="M9.7,12.1v.8h0v-.8Z"/><path class="i" d="M13.6,17.1h0Z"/><path class="f" d="M5.6,34.2H4.8c-.2,0-.3,0-.2-.2l.6-4.1c.1-.7.1-.7.8-.7a6.6,6.6,0,0,1,2.4.3A2.1,2.1,0,0,1,10,31.1a2.6,2.6,0,0,1-1,2.3,2.6,2.6,0,0,1-1.8.7Z"/><path class="f" d="M6.9,28.2H5.8c-.3,0-.3-.1-.3-.4s.4-2.1.7-3.2.1-.7.8-.8H8.6a1.8,1.8,0,0,1,1.3,2.7,3.4,3.4,0,0,1-1.8,1.5C7.7,28.3,7.2,28.1,6.9,28.2Z"/><path class="f" d="M15.9,4a3.5,3.5,0,0,1,3.5,3.5,3.5,3.5,0,1,1-7,.1A3.5,3.5,0,0,1,15.9,4Z"/><path class="j" d="M20.2,12H18.9A1.9,1.9,0,0,1,20.2,12Z"/><path class="f" d="M42.1,30.2a1.8,1.8,0,0,1,2.4-2,1.2,1.2,0,0,1,.9,1,3.1,3.1,0,0,1-.1,1c0,.1-.1,0-.2,0h-3Z"/><path class="e" d="M42.1,30.2h3.2c0,.1-.2.1-.2.1H42.3C42.2,30.3,42.1,30.3,42.1,30.2Z"/><path class="a" d="M11.9,12.8l2.3.5c.3.1.4.1.6-.1L16.6,12c.5-.3.7-.3.9.3a2.4,2.4,0,0,1,.2.9h.1a4.3,4.3,0,0,1-.1,1.6c-.1.3-.2.4-.5.3l-2.1-.9a.5.5,0,0,0-.5,0l-1.9,1.4a.5.5,0,0,1-.5,0,2.1,2.1,0,0,1-.9-2.2c0-.2-.1-.6.2-.7Z"/><path class="k" d="M11.9,12.8h-.4A.3.3,0,0,1,11.9,12.8Z"/><path class="k" d="M17.8,13.3v.2c0-.2-.1-.3,0-.3Z"/><path class="a" d="M13.5,8.1a2.4,2.4,0,0,1,1.2-2.7,2.4,2.4,0,0,1,3,.3,2.2,2.2,0,0,1,.8,1.5V8A2.5,2.5,0,0,1,15,9.9c-.2-.1-.2-.2-.1-.4s.3-.8.4-1.3l-1.1.4c-.6.2-.5.2-.7-.4h0Z"/><path class="l" d="M18.5,8a1.1,1.1,0,0,1,0-.8A2.2,2.2,0,0,1,18.5,8Z"/><path class="m" d="M13.5,8.1V7.8c.1.2.1.3,0,.4Z"/></svg>