<svg xmlns="http://www.w3.org/2000/svg" xmlns:xlink="http://www.w3.org/1999/xlink" viewBox="0 0 58 19">
<defs>
<style>.a{fill:none;}.b{fill:url(#a);}.c{font-size:5.66px;letter-spacing:0.06em;}.c,.d{font-family:MicrosoftYaHei, Microsoft YaHei;}
.d{font-size:2.28px;}.e{letter-spacing:0.23em;}
.f{letter-spacing:0.7px;}.g{clip-path:url(#b);}.h,.i{fill:#fff;}.i{stroke:#3380c7;stroke-miterlimit:10;stroke-width:0.25px;}
</style>
<linearGradient id="a" x1="4.73" y1="13.13" x2="19.71" y2="5.09" gradientUnits="userSpaceOnUse">
<stop offset="0" stop-color="#4195d2"/><stop offset="1" stop-color="#205fb2"/>
</linearGradient><clipPath id="b">
<circle class="a" cx="11.5" cy="9.5" r="8.5"/></clipPath></defs><title>鑫晤季国际 logo</title><circle class="b" cx="11.5" cy="9.5" r="8.5"/>
<text class="c" transform="translate(22.3 9.5)">鑫晤季国际</text>
<text class="d" transform="translate(22.3 13)">
<tspan class="f" x="0" y="0">www.sinowuji.com</tspan>
</text>
<g class="g"><path class="h" d="M8.3,7a7.5,7.5,0,0,0-6.5,3.9,7.5,7.5,0,0,1,5.1-2,7.4,7.4,0,0,1,7.4,7.4,6.8,6.8,0,0,1-.9,3.5,7.5,7.5,0,0,0,2.3-5.4A7.4,7.4,0,0,0,8.3,7Z"/></g><g class="g"><path class="i" d="M12.8,6.2,3.9,15.9h1L15.6,7s.6-.4,0-.8S13.9,4.8,12.8,6.2Z"/></g></svg>